<svg width="72" height="20" viewBox="0 0 72 20" fill="none" xmlns="http://www.w3.org/2000/svg">
<path d="M4.60811 8.68H5.15811V4.907H4.60811V3.587H8.20511C9.15844 3.587 9.86977 3.741 10.3391 4.049C10.8158 4.34967 11.0541 4.84833 11.0541 5.545C11.0541 6.249 10.8341 6.76233 10.3941 7.085C9.95411 7.40033 9.29777 7.558 8.42511 7.558H7.78711V6.238H8.09511C8.31511 6.238 8.48377 6.183 8.60111 6.073C8.72577 5.963 8.78811 5.798 8.78811 5.578C8.78811 5.358 8.72577 5.193 8.60111 5.083C8.48377 4.96567 8.31511 4.907 8.09511 4.907H7.35811V8.68H8.01811V10H4.60811V8.68ZM11.4754 8.68H12.0694L13.5434 4.907H12.9494V3.587H17.8004V4.907H17.2064L18.6914 8.68H19.2854V10H15.7984V8.68H16.4584L16.1944 7.8H14.3244L14.0384 8.68H14.5884V10H11.4754V8.68ZM15.8204 6.59L15.3144 4.907H15.2594L14.7094 6.59H15.8204ZM20.0554 8.68H20.6054V4.907H20.0554V3.587H24.0924C24.965 3.587 25.6544 3.74467 26.1604 4.06C26.6737 4.37533 26.9304 4.87767 26.9304 5.567C26.9304 6.37367 26.5344 6.93467 25.7424 7.25L26.6444 8.669H27.1944V10H25.0054L23.6084 7.514H23.2564V6.194H23.9714C24.1914 6.194 24.36 6.13533 24.4774 6.018C24.602 5.90067 24.6644 5.72833 24.6644 5.501C24.6644 5.31033 24.602 5.16367 24.4774 5.061C24.36 4.95833 24.1914 4.907 23.9714 4.907H22.8054V8.68H23.3114V10H20.0554V8.68ZM28.1442 8.68H28.6942V4.907H28.1442V3.587H32.1812C33.0539 3.587 33.7432 3.74467 34.2492 4.06C34.7626 4.37533 35.0192 4.87767 35.0192 5.567C35.0192 6.37367 34.6232 6.93467 33.8312 7.25L34.7332 8.669H35.2832V10H33.0942L31.6972 7.514H31.3452V6.194H32.0602C32.2802 6.194 32.4489 6.13533 32.5662 6.018C32.6909 5.90067 32.7532 5.72833 32.7532 5.501C32.7532 5.31033 32.6909 5.16367 32.5662 5.061C32.4489 4.95833 32.2802 4.907 32.0602 4.907H30.8942V8.68H31.4002V10H28.1442V8.68ZM36.2331 8.691H36.7831V4.907H36.2331V3.587H39.5331V4.907H38.9831V8.691H39.5331V10H36.2331V8.691ZM40.6374 8.68H41.1874V4.797H40.6374V3.587H43.9374V4.797H43.3874V8.68H44.8284V7.085H46.2584V10H40.6374V8.68ZM47.0505 8.68H47.6005V4.797H47.0505V3.587H50.3505V4.797H49.8005V8.68H51.2415V7.085H52.6715V10H47.0505V8.68ZM53.1336 8.68H53.7276L55.2016 4.907H54.6076V3.587H59.4586V4.907H58.8646L60.3496 8.68H60.9436V10H57.4566V8.68H58.1166L57.8526 7.8H55.9826L55.6966 8.68H56.2466V10H53.1336V8.68ZM57.4786 6.59L56.9726 4.907H56.9176L56.3676 6.59H57.4786ZM65.4206 5.864C66.1392 6.01067 66.6636 6.25633 66.9936 6.601C67.3309 6.93833 67.4996 7.415 67.4996 8.031C67.4996 8.691 67.2942 9.20433 66.8836 9.571C66.4729 9.93033 65.9192 10.11 65.2226 10.11C64.8486 10.11 64.4636 10.044 64.0676 9.912C63.6716 9.77267 63.3636 9.58567 63.1436 9.351V10H61.7136V7.811H62.9786C63.1766 8.15567 63.4296 8.427 63.7376 8.625C64.0529 8.81567 64.4049 8.911 64.7936 8.911C64.9842 8.911 65.1382 8.87067 65.2556 8.79C65.3729 8.702 65.4316 8.57733 65.4316 8.416C65.4316 8.24 65.3656 8.10433 65.2336 8.009C65.1089 7.91367 64.8926 7.833 64.5846 7.767L63.7046 7.58C62.9932 7.41867 62.4726 7.16933 62.1426 6.832C61.8199 6.48733 61.6586 6.02533 61.6586 5.446C61.6586 5.06467 61.7466 4.72733 61.9226 4.434C62.1059 4.13333 62.3626 3.89867 62.6926 3.73C63.0226 3.56133 63.4039 3.477 63.8366 3.477C64.6726 3.477 65.3472 3.71533 65.8606 4.192V3.587H67.1806V5.479H65.9706C65.8239 5.25167 65.6186 5.061 65.3546 4.907C65.0906 4.753 64.7936 4.676 64.4636 4.676C64.0749 4.676 63.8806 4.82267 63.8806 5.116C63.8806 5.28467 63.9612 5.41667 64.1226 5.512C64.2912 5.60733 64.5772 5.69533 64.9806 5.776L65.4206 5.864Z" fill="url(#paint0_linear)"/>
<path d="M9.49742 16.47H10.2774V11.9H9.49742V11.37H12.2874C12.9141 11.37 13.3908 11.49 13.7174 11.73C14.0508 11.9633 14.2174 12.31 14.2174 12.77C14.2174 13.0767 14.1408 13.3367 13.9874 13.55C13.8341 13.7633 13.6274 13.9133 13.3674 14C13.7408 14.0933 14.0241 14.2667 14.2174 14.52C14.4174 14.7667 14.5174 15.0633 14.5174 15.41C14.5174 15.8633 14.3541 16.2433 14.0274 16.55C13.7008 16.85 13.1908 17 12.4974 17H9.49742V16.47ZM12.2374 13.77C13.0174 13.77 13.4074 13.4467 13.4074 12.8C13.4074 12.4733 13.3008 12.2433 13.0874 12.11C12.8808 11.97 12.5374 11.9 12.0574 11.9H11.0974V13.77H12.2374ZM12.3574 16.47C13.2441 16.47 13.6874 16.1067 13.6874 15.38C13.6874 15.0533 13.5741 14.7967 13.3474 14.61C13.1208 14.4167 12.7808 14.32 12.3274 14.32H11.0974V16.47H12.3574ZM17.7582 13.02C18.0115 13.02 18.2782 13.0867 18.5582 13.22L18.3782 13.89C18.1515 13.7433 17.9215 13.67 17.6882 13.67C17.4215 13.67 17.1982 13.78 17.0182 14C16.8449 14.2133 16.7582 14.51 16.7582 14.89L16.7482 16.47H17.4482V17H15.2582V16.47H16.0182V13.6H15.2582V13.07H16.7482V13.79C16.9615 13.2767 17.2982 13.02 17.7582 13.02ZM23.1756 16.47V17H21.9056L21.8656 16.65C21.6523 16.81 21.439 16.9267 21.2256 17C21.0123 17.0733 20.7723 17.11 20.5056 17.11C20.1056 17.11 19.779 17 19.5256 16.78C19.279 16.5533 19.1556 16.2733 19.1556 15.94C19.1556 15.5133 19.299 15.2033 19.5856 15.01C19.879 14.81 20.2623 14.71 20.7356 14.71C21.0756 14.71 21.439 14.7533 21.8256 14.84V14.43C21.8256 14.13 21.7423 13.9033 21.5756 13.75C21.4156 13.5967 21.189 13.52 20.8956 13.52C20.7023 13.52 20.479 13.5533 20.2256 13.62C19.979 13.68 19.7523 13.7667 19.5456 13.88L19.3256 13.4C19.5456 13.26 19.799 13.1533 20.0856 13.08C20.379 13.0067 20.6523 12.97 20.9056 12.97C21.419 12.97 21.8223 13.0967 22.1156 13.35C22.409 13.5967 22.5556 13.9333 22.5556 14.36V16.47H23.1756ZM19.8556 15.9C19.8556 16.1067 19.9223 16.2767 20.0556 16.41C20.1956 16.5367 20.3823 16.6 20.6156 16.6C21.009 16.6 21.4123 16.4567 21.8256 16.17V15.27C21.4723 15.19 21.1256 15.15 20.7856 15.15C20.519 15.15 20.2956 15.21 20.1156 15.33C19.9423 15.4433 19.8556 15.6333 19.8556 15.9ZM25.9162 14.72C26.2228 14.7933 26.4662 14.8733 26.6462 14.96C26.8328 15.04 26.9828 15.16 27.0962 15.32C27.2095 15.48 27.2662 15.6933 27.2662 15.96C27.2662 16.3333 27.1195 16.6167 26.8262 16.81C26.5328 17.0033 26.1795 17.1 25.7662 17.1C25.5128 17.1 25.2728 17.06 25.0462 16.98C24.8195 16.9 24.6395 16.7933 24.5062 16.66V17H23.9262V15.64H24.4462L24.4862 16.07C24.5995 16.2367 24.7628 16.3667 24.9762 16.46C25.1962 16.5467 25.4262 16.59 25.6662 16.59C25.9262 16.59 26.1395 16.54 26.3062 16.44C26.4728 16.3333 26.5562 16.1933 26.5562 16.02C26.5562 15.82 26.4928 15.6767 26.3662 15.59C26.2395 15.5033 26.0028 15.4233 25.6562 15.35L25.1062 15.23C24.6995 15.13 24.3995 15 24.2062 14.84C24.0128 14.6733 23.9162 14.4167 23.9162 14.07C23.9162 13.73 24.0495 13.4633 24.3162 13.27C24.5895 13.07 24.9395 12.97 25.3662 12.97C25.5728 12.97 25.7828 13.0033 25.9962 13.07C26.2162 13.1367 26.3895 13.23 26.5162 13.35V13.05H27.1062V14.4H26.5862L26.5162 13.91C26.4162 13.79 26.2662 13.6933 26.0662 13.62C25.8728 13.54 25.6795 13.5 25.4862 13.5C25.2528 13.5 25.0562 13.5467 24.8962 13.64C24.7362 13.7333 24.6562 13.87 24.6562 14.05C24.6562 14.1967 24.7128 14.31 24.8262 14.39C24.9395 14.47 25.1328 14.5433 25.4062 14.61L25.9162 14.72ZM26.6262 14.11L26.6162 14.09L26.6262 14.11ZM24.3662 15.82C24.3662 15.8333 24.3695 15.8433 24.3762 15.85L24.3662 15.82ZM32.0526 16.47V17H30.7826L30.7426 16.65C30.5292 16.81 30.3159 16.9267 30.1026 17C29.8892 17.0733 29.6492 17.11 29.3826 17.11C28.9826 17.11 28.6559 17 28.4026 16.78C28.1559 16.5533 28.0326 16.2733 28.0326 15.94C28.0326 15.5133 28.1759 15.2033 28.4626 15.01C28.7559 14.81 29.1392 14.71 29.6126 14.71C29.9526 14.71 30.3159 14.7533 30.7026 14.84V14.43C30.7026 14.13 30.6192 13.9033 30.4526 13.75C30.2926 13.5967 30.0659 13.52 29.7726 13.52C29.5792 13.52 29.3559 13.5533 29.1026 13.62C28.8559 13.68 28.6292 13.7667 28.4226 13.88L28.2026 13.4C28.4226 13.26 28.6759 13.1533 28.9626 13.08C29.2559 13.0067 29.5292 12.97 29.7826 12.97C30.2959 12.97 30.6992 13.0967 30.9926 13.35C31.2859 13.5967 31.4326 13.9333 31.4326 14.36V16.47H32.0526ZM28.7326 15.9C28.7326 16.1067 28.7992 16.2767 28.9326 16.41C29.0726 16.5367 29.2592 16.6 29.4926 16.6C29.8859 16.6 30.2892 16.4567 30.7026 16.17V15.27C30.3492 15.19 30.0026 15.15 29.6626 15.15C29.3959 15.15 29.1726 15.21 28.9926 15.33C28.8192 15.4433 28.7326 15.6333 28.7326 15.9ZM34.7931 14.72C35.0998 14.7933 35.3431 14.8733 35.5231 14.96C35.7098 15.04 35.8598 15.16 35.9731 15.32C36.0865 15.48 36.1431 15.6933 36.1431 15.96C36.1431 16.3333 35.9965 16.6167 35.7031 16.81C35.4098 17.0033 35.0565 17.1 34.6431 17.1C34.3898 17.1 34.1498 17.06 33.9231 16.98C33.6965 16.9 33.5165 16.7933 33.3831 16.66V17H32.8031V15.64H33.3231L33.3631 16.07C33.4765 16.2367 33.6398 16.3667 33.8531 16.46C34.0731 16.5467 34.3031 16.59 34.5431 16.59C34.8031 16.59 35.0165 16.54 35.1831 16.44C35.3498 16.3333 35.4331 16.1933 35.4331 16.02C35.4331 15.82 35.3698 15.6767 35.2431 15.59C35.1165 15.5033 34.8798 15.4233 34.5331 15.35L33.9831 15.23C33.5765 15.13 33.2765 15 33.0831 14.84C32.8898 14.6733 32.7931 14.4167 32.7931 14.07C32.7931 13.73 32.9265 13.4633 33.1931 13.27C33.4665 13.07 33.8165 12.97 34.2431 12.97C34.4498 12.97 34.6598 13.0033 34.8731 13.07C35.0931 13.1367 35.2665 13.23 35.3931 13.35V13.05H35.9831V14.4H35.4631L35.3931 13.91C35.2931 13.79 35.1431 13.6933 34.9431 13.62C34.7498 13.54 34.5565 13.5 34.3631 13.5C34.1298 13.5 33.9331 13.5467 33.7731 13.64C33.6131 13.7333 33.5331 13.87 33.5331 14.05C33.5331 14.1967 33.5898 14.31 33.7031 14.39C33.8165 14.47 34.0098 14.5433 34.2831 14.61L34.7931 14.72ZM35.5031 14.11L35.4931 14.09L35.5031 14.11ZM33.2431 15.82C33.2431 15.8333 33.2465 15.8433 33.2531 15.85L33.2431 15.82ZM37.0595 14.38H39.4495V14.94H37.0595V14.38ZM40.3763 16.47H41.1563V11.9H40.3763V11.37H42.7563V11.9H41.9763V16.47H44.3163V14.74H44.9763V17H40.3763V16.47ZM49.5002 15.19H46.2602C46.3069 15.61 46.4569 15.9433 46.7102 16.19C46.9636 16.43 47.2869 16.55 47.6802 16.55C48.2269 16.55 48.7236 16.34 49.1702 15.92L49.4302 16.37C49.2369 16.5967 48.9936 16.78 48.7002 16.92C48.4069 17.0533 48.0769 17.12 47.7102 17.12C47.2969 17.12 46.9202 17.0333 46.5802 16.86C46.2402 16.6867 45.9736 16.4433 45.7802 16.13C45.5869 15.81 45.4902 15.4467 45.4902 15.04C45.4902 14.6267 45.5802 14.2633 45.7602 13.95C45.9469 13.63 46.1969 13.3867 46.5102 13.22C46.8302 13.0467 47.1836 12.96 47.5702 12.96C48.1702 12.96 48.6402 13.1433 48.9802 13.51C49.3269 13.8767 49.5002 14.3733 49.5002 15V15.19ZM48.7702 14.73C48.7702 14.35 48.6569 14.05 48.4302 13.83C48.2102 13.61 47.9236 13.5 47.5702 13.5C47.2236 13.5 46.9302 13.61 46.6902 13.83C46.4502 14.05 46.3069 14.35 46.2602 14.73H48.7702ZM54.9996 16.47V17H52.8896V16.47H53.5396V14.42C53.5396 14.1467 53.4729 13.9333 53.3396 13.78C53.2063 13.6267 53.0229 13.55 52.7896 13.55C52.5963 13.55 52.3996 13.5867 52.1996 13.66C52.0063 13.7267 51.7929 13.83 51.5596 13.97V16.47H52.2696V17H50.0696V16.47H50.8296V13.6H50.0696V13.07H51.5596V13.46C52.0796 13.1333 52.5529 12.97 52.9796 12.97C53.3529 12.97 53.6596 13.0867 53.8996 13.32C54.1463 13.5467 54.2696 13.8667 54.2696 14.28V16.47H54.9996ZM53.2996 12.3C53.2063 12.3 53.1063 12.2867 52.9996 12.26C52.8996 12.2267 52.8029 12.1967 52.7096 12.17C52.6229 12.1367 52.5663 12.1133 52.5396 12.1C52.2729 11.9867 52.0829 11.93 51.9696 11.93C51.8829 11.93 51.8129 11.9567 51.7596 12.01C51.7129 12.0567 51.6796 12.14 51.6596 12.26H51.3496C51.3763 11.9667 51.4529 11.7467 51.5796 11.6C51.7063 11.4533 51.8729 11.38 52.0796 11.38C52.2263 11.38 52.4596 11.4467 52.7796 11.58C53.0596 11.6933 53.2463 11.75 53.3396 11.75C53.4396 11.75 53.5196 11.7233 53.5796 11.67C53.6396 11.6167 53.6829 11.5267 53.7096 11.4H53.9996C53.9796 11.6733 53.9129 11.8933 53.7996 12.06C53.6863 12.22 53.5196 12.3 53.2996 12.3ZM59.4256 16.47V17H58.1556L58.1156 16.65C57.9023 16.81 57.689 16.9267 57.4756 17C57.2623 17.0733 57.0223 17.11 56.7556 17.11C56.3556 17.11 56.029 17 55.7756 16.78C55.529 16.5533 55.4056 16.2733 55.4056 15.94C55.4056 15.5133 55.549 15.2033 55.8356 15.01C56.129 14.81 56.5123 14.71 56.9856 14.71C57.3256 14.71 57.689 14.7533 58.0756 14.84V14.43C58.0756 14.13 57.9923 13.9033 57.8256 13.75C57.6656 13.5967 57.439 13.52 57.1456 13.52C56.9523 13.52 56.729 13.5533 56.4756 13.62C56.229 13.68 56.0023 13.7667 55.7956 13.88L55.5756 13.4C55.7956 13.26 56.049 13.1533 56.3356 13.08C56.629 13.0067 56.9023 12.97 57.1556 12.97C57.669 12.97 58.0723 13.0967 58.3656 13.35C58.659 13.5967 58.8056 13.9333 58.8056 14.36V16.47H59.4256ZM56.1056 15.9C56.1056 16.1067 56.1723 16.2767 56.3056 16.41C56.4456 16.5367 56.6323 16.6 56.8656 16.6C57.259 16.6 57.6623 16.4567 58.0756 16.17V15.27C57.7223 15.19 57.3756 15.15 57.0356 15.15C56.769 15.15 56.5456 15.21 56.3656 15.33C56.1923 15.4433 56.1056 15.6333 56.1056 15.9ZM62.1662 14.72C62.4728 14.7933 62.7162 14.8733 62.8962 14.96C63.0828 15.04 63.2328 15.16 63.3462 15.32C63.4595 15.48 63.5162 15.6933 63.5162 15.96C63.5162 16.3333 63.3695 16.6167 63.0762 16.81C62.7828 17.0033 62.4295 17.1 62.0162 17.1C61.7628 17.1 61.5228 17.06 61.2962 16.98C61.0695 16.9 60.8895 16.7933 60.7562 16.66V17H60.1762V15.64H60.6962L60.7362 16.07C60.8495 16.2367 61.0128 16.3667 61.2262 16.46C61.4462 16.5467 61.6762 16.59 61.9162 16.59C62.1762 16.59 62.3895 16.54 62.5562 16.44C62.7228 16.3333 62.8062 16.1933 62.8062 16.02C62.8062 15.82 62.7428 15.6767 62.6162 15.59C62.4895 15.5033 62.2528 15.4233 61.9062 15.35L61.3562 15.23C60.9495 15.13 60.6495 15 60.4562 14.84C60.2628 14.6733 60.1662 14.4167 60.1662 14.07C60.1662 13.73 60.2995 13.4633 60.5662 13.27C60.8395 13.07 61.1895 12.97 61.6162 12.97C61.8228 12.97 62.0328 13.0033 62.2462 13.07C62.4662 13.1367 62.6395 13.23 62.7662 13.35V13.05H63.3562V14.4H62.8362L62.7662 13.91C62.6662 13.79 62.5162 13.6933 62.3162 13.62C62.1228 13.54 61.9295 13.5 61.7362 13.5C61.5028 13.5 61.3062 13.5467 61.1462 13.64C60.9862 13.7333 60.9062 13.87 60.9062 14.05C60.9062 14.1967 60.9628 14.31 61.0762 14.39C61.1895 14.47 61.3828 14.5433 61.6562 14.61L62.1662 14.72ZM62.8762 14.11L62.8662 14.09L62.8762 14.11ZM60.6162 15.82C60.6162 15.8333 60.6195 15.8433 60.6262 15.85L60.6162 15.82Z" fill="white"/>
<defs>
<linearGradient id="paint0_linear" x1="36" y1="0" x2="36" y2="14" gradientUnits="userSpaceOnUse">
<stop stop-color="#FE0606" stop-opacity="0.99"/>
<stop offset="1" stop-color="#DBFE06" stop-opacity="0.82"/>
</linearGradient>
</defs>
</svg>
